<svg viewBox="0 0 520 200" xmlns="http://www.w3.org/2000/svg">
  <defs>
    <linearGradient id="purpleGradient" x1="0%" y1="0%" x2="100%" y2="100%">
      <stop offset="0%" style="stop-color:#667eea;stop-opacity:1" />
      <stop offset="100%" style="stop-color:#764ba2;stop-opacity:1" />
    </linearGradient>
    <filter id="shadow" x="-50%" y="-50%" width="200%" height="200%">
      <feDropShadow dx="0" dy="2" stdDeviation="3" flood-opacity="0.15"/>
    </filter>
  </defs>
  
  <!-- Background circle -->
  <circle cx="100" cy="100" r="95" fill="white" filter="url(#shadow)"/>
  
  <!-- Main shield shape -->
  <path d="M 100 30 L 160 60 L 160 110 C 160 150 100 165 100 165 C 100 165 40 150 40 110 L 40 60 Z" 
        fill="url(#purpleGradient)" 
        filter="url(#shadow)"/>
  
  <!-- Shield accent/highlight -->
  <path d="M 100 40 L 155 65 L 155 110 C 155 145 100 158 100 158 C 100 158 45 145 45 110 L 45 65 Z" 
        fill="none" 
        stroke="white" 
        stroke-width="2" 
        opacity="0.3"/>
  
  <!-- Center icon - checkmark (representing security/verification) -->
  <g transform="translate(100, 100)">
    <circle cx="0" cy="0" r="25" fill="white" opacity="0.1"/>
    <path d="M -8 2 L -2 8 L 10 -4" 
          stroke="white" 
          stroke-width="3" 
          fill="none" 
          stroke-linecap="round" 
          stroke-linejoin="round"/>
  </g>
  
  <!-- Decorative elements (small dots for modern feel) -->
  <circle cx="70" cy="80" r="2" fill="white" opacity="0.5"/>
  <circle cx="130" cy="80" r="2" fill="white" opacity="0.5"/>
  
  <!-- Agency Name Text -->
  <text x="220" y="75" font-family="'Segoe UI', Tahoma, Geneva, Verdana, sans-serif" 
        font-size="18" font-weight="700" fill="#333" letter-spacing="0.5">
    Davao Security &amp;
  </text>
  <text x="220" y="100" font-family="'Segoe UI', Tahoma, Geneva, Verdana, sans-serif" 
        font-size="18" font-weight="700" fill="#333" letter-spacing="0.5">
    Investigation Agency
  </text>
  <text x="220" y="125" font-family="'Segoe UI', Tahoma, Geneva, Verdana, sans-serif" 
        font-size="12" font-weight="600" fill="#667eea" letter-spacing="0.3">
    Inc.
  </text>
</svg>